<svg width="27" height="24" viewBox="0 0 27 24" fill="none" xmlns="http://www.w3.org/2000/svg">
<path d="M19.5138 10.8967C21.0356 10.7007 22.2072 9.5047 22.2105 8.0557C22.2105 6.6277 21.0749 5.4437 19.5858 5.2197" stroke="#A3A3A3" stroke-width="1.4" stroke-linecap="round" stroke-linejoin="round"/>
<path d="M21.522 14.2503C22.9958 14.4523 24.0245 14.9253 24.0245 15.9003C24.0245 16.5713 23.5402 17.0073 22.7569 17.2813" stroke="#A3A3A3" stroke-width="1.4" stroke-linecap="round" stroke-linejoin="round"/>
<path fill-rule="evenodd" clip-rule="evenodd" d="M12.9673 14.6638C9.4611 14.6638 6.46655 15.1508 6.46655 17.0958C6.46655 19.0398 9.44255 19.5408 12.9673 19.5408C16.4735 19.5408 19.4669 19.0588 19.4669 17.1128C19.4669 15.1668 16.492 14.6638 12.9673 14.6638Z" stroke="#A3A3A3" stroke-width="1.4" stroke-linecap="round" stroke-linejoin="round"/>
<path fill-rule="evenodd" clip-rule="evenodd" d="M12.9672 11.8879C15.268 11.8879 17.1334 10.1789 17.1334 8.06889C17.1334 5.95989 15.268 4.24989 12.9672 4.24989C10.6665 4.24989 8.80106 5.95989 8.80106 8.06889C8.79233 10.1709 10.6436 11.8809 12.9367 11.8879H12.9672Z" stroke="#A3A3A3" stroke-width="1.4" stroke-linecap="round" stroke-linejoin="round"/>
<path d="M6.41975 10.8967C4.89684 10.7007 3.7263 9.5047 3.72302 8.0557C3.72302 6.6277 4.85866 5.4437 6.34775 5.2197" stroke="#A3A3A3" stroke-width="1.4" stroke-linecap="round" stroke-linejoin="round"/>
<path d="M4.41148 14.2503C2.93766 14.4523 1.90894 14.9253 1.90894 15.9003C1.90894 16.5713 2.3933 17.0073 3.17657 17.2813" stroke="#A3A3A3" stroke-width="1.4" stroke-linecap="round" stroke-linejoin="round"/>
</svg>
