<svg width="46" height="45" viewBox="0 0 46 45" fill="none" xmlns="http://www.w3.org/2000/svg">
<g filter="url(#filter0_b_1_201)">
<rect x="0.104492" y="0.000183105" width="45" height="45" rx="22.5" fill="#FF8D24" fill-opacity="0.45"/>
<path d="M22.6046 18.6138C23.664 18.6138 24.68 19.0233 25.4291 19.7521C26.1782 20.4809 26.5991 21.4694 26.5991 22.5002C26.5991 23.5309 26.1782 24.5194 25.4291 25.2482C24.68 25.9771 23.664 26.3865 22.6046 26.3865C21.5452 26.3865 20.5292 25.9771 19.78 25.2482C19.0309 24.5194 18.6101 23.5309 18.6101 22.5002C18.6101 21.4694 19.0309 20.4809 19.78 19.7521C20.5292 19.0233 21.5452 18.6138 22.6046 18.6138ZM22.6046 20.557C22.0749 20.557 21.5669 20.7617 21.1923 21.1261C20.8178 21.4906 20.6073 21.9848 20.6073 22.5002C20.6073 23.0155 20.8178 23.5098 21.1923 23.8742C21.5669 24.2386 22.0749 24.4434 22.6046 24.4434C23.1343 24.4434 23.6423 24.2386 24.0168 23.8742C24.3914 23.5098 24.6018 23.0155 24.6018 22.5002C24.6018 21.9848 24.3914 21.4906 24.0168 21.1261C23.6423 20.7617 23.1343 20.557 22.6046 20.557ZM20.6073 32.2161C20.3577 32.2161 20.148 32.0412 20.108 31.808L19.8803 30.221C19.7927 29.611 19.3654 29.1064 18.8335 28.7953C18.3232 28.497 17.7161 28.4035 17.1663 28.6205L15.5643 29.2527C15.3446 29.3304 15.075 29.2527 14.9551 29.039L12.9579 25.6773C12.8281 25.4635 12.888 25.2012 13.0777 25.0555L14.5237 23.9487C14.9362 23.6329 15.1617 23.1304 15.1232 22.6123C15.1177 22.5377 15.1176 22.4624 15.123 22.3877C15.1614 21.8536 14.9262 21.3342 14.4982 21.0125L13.0777 19.9449C12.888 19.7992 12.8281 19.5368 12.9579 19.3231L14.9551 15.9614C15.075 15.7476 15.3446 15.6602 15.5643 15.7476L17.1758 16.3773C17.7209 16.5903 18.32 16.5025 18.8259 16.2081C19.3618 15.8963 19.7931 15.387 19.8812 14.7732L20.108 13.1923C20.148 12.9592 20.3577 12.7843 20.6073 12.7843H24.6018C24.8515 12.7843 25.0612 12.9592 25.1011 13.1923L25.328 14.7733C25.4161 15.387 25.8474 15.8963 26.3833 16.2081C26.8892 16.5025 27.4882 16.5903 28.0334 16.3773L29.6448 15.7476C29.8645 15.6602 30.1342 15.7476 30.254 15.9614L32.2512 19.3231C32.3811 19.5368 32.3211 19.7992 32.1314 19.9449L30.7122 21.0116C30.2834 21.3339 30.0476 21.8518 30.0861 22.3869C30.0915 22.4623 30.0915 22.538 30.0861 22.6135C30.0476 23.1485 30.2834 23.6665 30.7122 23.9888L32.1314 25.0555C32.3211 25.2012 32.3811 25.4635 32.2512 25.6773L30.254 29.039C30.1342 29.2527 29.8645 29.3402 29.6448 29.2527L28.0334 28.6231C27.4882 28.4101 26.8892 28.4979 26.3833 28.7922C25.8474 29.104 25.4161 29.6133 25.328 30.2271L25.1011 31.808C25.0612 32.0412 24.8515 32.2161 24.6018 32.2161H20.6073ZM22.6044 14.7275C22.1744 14.7275 21.8096 15.0429 21.7477 15.4684L21.6519 16.1258C21.5524 16.8082 21.0244 17.3332 20.3908 17.6053C20.0135 17.7674 19.6585 17.9693 19.3319 18.2055C18.7617 18.6181 18.0242 18.8096 17.3753 18.5372L16.7127 18.259C16.3349 18.1004 15.898 18.2447 15.689 18.5972C15.4716 18.9637 15.571 19.4357 15.9178 19.6835L16.4638 20.0738C17.0254 20.4752 17.23 21.1986 17.1488 21.8841C17.1005 22.2914 17.1 22.7023 17.1471 23.1086C17.2273 23.7987 17.0227 24.5275 16.4578 24.932L15.9081 25.3256C15.5611 25.574 15.4618 26.0465 15.6794 26.4136C15.8884 26.7659 16.3247 26.9107 16.7028 26.7533L17.3799 26.4714C18.0331 26.1994 18.7737 26.391 19.3483 26.804C19.6652 27.0318 20.0083 27.2273 20.3723 27.3846C21.0091 27.6598 21.5428 28.1868 21.6425 28.8733L21.7366 29.5216C21.7992 29.9529 22.1689 30.2729 22.6048 30.2729C23.0404 30.2729 23.4101 29.9532 23.4729 29.5221L23.5674 28.8734C23.6668 28.1915 24.1941 27.6665 24.8263 27.3922C25.1943 27.2326 25.541 27.0347 25.8611 26.8043C26.4353 26.3908 27.176 26.1994 27.8292 26.4714L28.5073 26.7537C28.8849 26.9109 29.3205 26.7663 29.5291 26.4146C29.7469 26.0472 29.6468 25.5743 29.2988 25.3268L28.7499 24.9363C28.1859 24.5351 27.9798 23.8097 28.0608 23.1223C28.1092 22.7109 28.1091 22.2954 28.0603 21.8841C27.9791 21.1986 28.1838 20.4752 28.7454 20.0738L29.2914 19.6835C29.6381 19.4357 29.7375 18.9637 29.5201 18.5972C29.3111 18.2447 28.8742 18.1004 28.4964 18.259L27.8339 18.5372C27.1849 18.8096 26.4476 18.6178 25.877 18.2058C25.5536 17.9722 25.2022 17.7726 24.8289 17.6129C24.1907 17.3399 23.6562 16.8129 23.5565 16.126L23.4612 15.4689C23.3994 15.0432 23.0345 14.7275 22.6044 14.7275Z" fill="white"/>
</g>
<defs>
<filter id="filter0_b_1_201" x="-3.89551" y="-3.99982" width="53" height="52.9999" filterUnits="userSpaceOnUse" color-interpolation-filters="sRGB">
<feFlood flood-opacity="0" result="BackgroundImageFix"/>
<feGaussianBlur in="BackgroundImageFix" stdDeviation="2"/>
<feComposite in2="SourceAlpha" operator="in" result="effect1_backgroundBlur_1_201"/>
<feBlend mode="normal" in="SourceGraphic" in2="effect1_backgroundBlur_1_201" result="shape"/>
</filter>
</defs>
</svg>
