<svg width="24" height="23" viewBox="0 0 24 23" fill="none" xmlns="http://www.w3.org/2000/svg">
<path d="M9.32222 19.4143V16.5566C9.32222 15.8271 9.91791 15.2358 10.6527 15.2358H13.3389C13.6918 15.2358 14.0302 15.3749 14.2797 15.6227C14.5292 15.8704 14.6694 16.2063 14.6694 16.5566V19.4143C14.6672 19.7176 14.787 20.0092 15.0022 20.2244C15.2174 20.4397 15.5103 20.5607 15.8158 20.5607H17.6484C18.5043 20.5629 19.3259 20.2269 19.9319 19.6269C20.5379 19.0269 20.8785 18.2121 20.8785 17.3624V9.22135C20.8785 8.53499 20.572 7.88395 20.0417 7.4436L13.8075 2.50079C12.723 1.63415 11.1693 1.66213 10.1172 2.56725L4.02524 7.4436C3.46985 7.87097 3.13789 8.52394 3.12149 9.22135V17.3541C3.12149 19.1251 4.56764 20.5607 6.35156 20.5607H8.14232C8.77684 20.5607 9.29252 20.0525 9.29711 19.4226L9.32222 19.4143Z" fill="#FF8D24"/>
</svg>
