<svg width="53" height="45" viewBox="0 0 53 45" fill="none" xmlns="http://www.w3.org/2000/svg">
<g filter="url(#filter0_b_1_195)">
<rect x="0.710205" y="0.000335693" width="52.0564" height="45" rx="22.5" fill="#FF8D24" fill-opacity="0.45"/>
<path d="M39.4108 29.3058C39.8584 29.2125 40.1249 28.7442 39.9025 28.3447C39.4122 27.4641 38.6398 26.6902 37.6516 26.1005C36.379 25.341 34.8197 24.9293 33.2156 24.9293C31.6115 24.9293 30.0523 25.341 28.7796 26.1005C27.7915 26.6902 27.0191 27.4641 26.5287 28.3447C26.3063 28.7442 26.5729 29.2125 27.0205 29.3058C31.1067 30.1574 35.3246 30.1574 39.4108 29.3058Z" fill="white" fill-opacity="0.7"/>
<path d="M37.2639 19.2617C37.2639 21.4975 35.4514 23.31 33.2156 23.31C30.9798 23.31 29.1673 21.4975 29.1673 19.2617C29.1673 17.0259 30.9798 15.2134 33.2156 15.2134C35.4514 15.2134 37.2639 17.0259 37.2639 19.2617Z" fill="white" fill-opacity="0.7"/>
<path d="M26.4562 29.3058C26.9038 29.2125 27.1704 28.7442 26.948 28.3447C26.4577 27.4641 25.6852 26.6902 24.6971 26.1005C23.4245 25.341 21.8652 24.9293 20.2611 24.9293C18.657 24.9293 17.0977 25.341 15.8251 26.1005C14.837 26.6902 14.0645 27.4641 13.5742 28.3447C13.3518 28.7442 13.6184 29.2125 14.066 29.3058C18.1522 30.1574 22.37 30.1574 26.4562 29.3058Z" fill="white" fill-opacity="0.7"/>
<path d="M24.3094 19.2617C24.3094 21.4975 22.4969 23.31 20.2611 23.31C18.0253 23.31 16.2128 21.4975 16.2128 19.2617C16.2128 17.0259 18.0253 15.2134 20.2611 15.2134C22.4969 15.2134 24.3094 17.0259 24.3094 19.2617Z" fill="white" fill-opacity="0.7"/>
<path d="M34.6026 31.3737C35.1917 31.2507 35.5425 30.6329 35.2498 30.1059C34.6045 28.9443 33.5878 27.9235 32.2873 27.1456C30.6123 26.1437 28.5601 25.6007 26.4488 25.6007C24.3375 25.6007 22.2853 26.1437 20.6103 27.1456C19.3098 27.9235 18.2931 28.9443 17.6478 30.1059C17.3551 30.6329 17.7059 31.2507 18.295 31.3737C23.6731 32.4971 29.2245 32.4971 34.6026 31.3737Z" fill="white" fill-opacity="0.7"/>
<path d="M31.777 18.1245C31.777 21.0738 29.3915 23.4646 26.4488 23.4646C23.5061 23.4646 21.1206 21.0738 21.1206 18.1245C21.1206 15.1753 23.5061 12.7844 26.4488 12.7844C29.3915 12.7844 31.777 15.1753 31.777 18.1245Z" fill="white" fill-opacity="0.7"/>
</g>
<defs>
<filter id="filter0_b_1_195" x="-3.28979" y="-3.99966" width="60.0564" height="53" filterUnits="userSpaceOnUse" color-interpolation-filters="sRGB">
<feFlood flood-opacity="0" result="BackgroundImageFix"/>
<feGaussianBlur in="BackgroundImageFix" stdDeviation="2"/>
<feComposite in2="SourceAlpha" operator="in" result="effect1_backgroundBlur_1_195"/>
<feBlend mode="normal" in="SourceGraphic" in2="effect1_backgroundBlur_1_195" result="shape"/>
</filter>
</defs>
</svg>
